<svg width="335" height="130" viewBox="0 0 335 130" fill="none" xmlns="http://www.w3.org/2000/svg">
<g filter="url(#filter0_d_437_14)">
<rect x="33" y="20" width="64" height="64" rx="21" fill="#8743DF"/>
</g>
<path d="M67.9 33.9C71.1333 33.9 73.9167 34.4833 76.25 35.65C78.6167 36.7833 80.4167 38.4 81.65 40.5C82.9167 42.5667 83.55 45 83.55 47.8C83.55 48.7667 83.4333 49.9833 83.2 51.45C82.6 54.8833 81.3 57.9333 79.3 60.6C77.3333 63.2667 74.8167 65.3333 71.75 66.8C68.7167 68.2667 65.3667 69 61.7 69H48.55L54.75 33.9H67.9ZM62.45 61.7C65.6833 61.7 68.3667 60.8 70.5 59C72.6333 57.2 73.9667 54.6833 74.5 51.45C74.6667 50.45 74.75 49.6167 74.75 48.95C74.75 46.4833 74 44.5833 72.5 43.25C71 41.8833 68.8667 41.2 66.1 41.2H62L58.4 61.7H62.45Z" fill="white"/>
<path d="M126.116 62.242C127.18 62.242 128.099 62.4427 128.874 62.844C129.658 63.236 130.255 63.8007 130.666 64.538C131.086 65.2753 131.296 66.1433 131.296 67.142C131.296 68.1407 131.086 69.0087 130.666 69.746C130.255 70.474 129.658 71.034 128.874 71.426C128.099 71.8087 127.18 72 126.116 72H123.078V62.242H126.116ZM126.116 70.95C127.376 70.95 128.337 70.6187 129 69.956C129.663 69.284 129.994 68.346 129.994 67.142C129.994 65.9287 129.658 64.9813 128.986 64.3C128.323 63.6187 127.367 63.278 126.116 63.278H124.352V70.95H126.116ZM133.634 63.082C133.392 63.082 133.186 62.998 133.018 62.83C132.85 62.662 132.766 62.4567 132.766 62.214C132.766 61.9713 132.85 61.766 133.018 61.598C133.186 61.43 133.392 61.346 133.634 61.346C133.868 61.346 134.064 61.43 134.222 61.598C134.39 61.766 134.474 61.9713 134.474 62.214C134.474 62.4567 134.39 62.662 134.222 62.83C134.064 62.998 133.868 63.082 133.634 63.082ZM134.25 64.328V72H132.976V64.328H134.25ZM135.946 68.136C135.946 67.352 136.104 66.666 136.422 66.078C136.739 65.4807 137.173 65.0187 137.724 64.692C138.284 64.3653 138.904 64.202 139.586 64.202C140.258 64.202 140.841 64.3467 141.336 64.636C141.83 64.9253 142.199 65.2893 142.442 65.728V64.328H143.73V72H142.442V70.572C142.19 71.02 141.812 71.3933 141.308 71.692C140.813 71.9813 140.234 72.126 139.572 72.126C138.89 72.126 138.274 71.958 137.724 71.622C137.173 71.286 136.739 70.8147 136.422 70.208C136.104 69.6013 135.946 68.9107 135.946 68.136ZM142.442 68.15C142.442 67.5713 142.325 67.0673 142.092 66.638C141.858 66.2087 141.541 65.882 141.14 65.658C140.748 65.4247 140.314 65.308 139.838 65.308C139.362 65.308 138.928 65.42 138.536 65.644C138.144 65.868 137.831 66.1947 137.598 66.624C137.364 67.0533 137.248 67.5573 137.248 68.136C137.248 68.724 137.364 69.2373 137.598 69.676C137.831 70.1053 138.144 70.4367 138.536 70.67C138.928 70.894 139.362 71.006 139.838 71.006C140.314 71.006 140.748 70.894 141.14 70.67C141.541 70.4367 141.858 70.1053 142.092 69.676C142.325 69.2373 142.442 68.7287 142.442 68.15ZM147.157 65.742C147.409 65.3033 147.782 64.9393 148.277 64.65C148.781 64.3513 149.364 64.202 150.027 64.202C150.708 64.202 151.324 64.3653 151.875 64.692C152.435 65.0187 152.873 65.4807 153.191 66.078C153.508 66.666 153.667 67.352 153.667 68.136C153.667 68.9107 153.508 69.6013 153.191 70.208C152.873 70.8147 152.435 71.286 151.875 71.622C151.324 71.958 150.708 72.126 150.027 72.126C149.373 72.126 148.795 71.9813 148.291 71.692C147.796 71.3933 147.418 71.0247 147.157 70.586V75.64H145.883V64.328H147.157V65.742ZM152.365 68.136C152.365 67.5573 152.248 67.0533 152.015 66.624C151.781 66.1947 151.464 65.868 151.063 65.644C150.671 65.42 150.237 65.308 149.761 65.308C149.294 65.308 148.86 65.4247 148.459 65.658C148.067 65.882 147.749 66.2133 147.507 66.652C147.273 67.0813 147.157 67.5807 147.157 68.15C147.157 68.7287 147.273 69.2373 147.507 69.676C147.749 70.1053 148.067 70.4367 148.459 70.67C148.86 70.894 149.294 71.006 149.761 71.006C150.237 71.006 150.671 70.894 151.063 70.67C151.464 70.4367 151.781 70.1053 152.015 69.676C152.248 69.2373 152.365 68.724 152.365 68.136ZM162.344 67.87C162.344 68.1127 162.33 68.3693 162.302 68.64H156.17C156.216 69.396 156.473 69.9887 156.94 70.418C157.416 70.838 157.99 71.048 158.662 71.048C159.212 71.048 159.67 70.922 160.034 70.67C160.407 70.4087 160.668 70.0633 160.818 69.634H162.19C161.984 70.3713 161.574 70.9733 160.958 71.44C160.342 71.8973 159.576 72.126 158.662 72.126C157.934 72.126 157.28 71.9627 156.702 71.636C156.132 71.3093 155.684 70.8473 155.358 70.25C155.031 69.6433 154.868 68.9433 154.868 68.15C154.868 67.3567 155.026 66.6613 155.344 66.064C155.661 65.4667 156.104 65.0093 156.674 64.692C157.252 64.3653 157.915 64.202 158.662 64.202C159.39 64.202 160.034 64.3607 160.594 64.678C161.154 64.9953 161.583 65.434 161.882 65.994C162.19 66.5447 162.344 67.17 162.344 67.87ZM161.028 67.604C161.028 67.1187 160.92 66.7033 160.706 66.358C160.491 66.0033 160.197 65.7373 159.824 65.56C159.46 65.3733 159.054 65.28 158.606 65.28C157.962 65.28 157.411 65.4853 156.954 65.896C156.506 66.3067 156.249 66.876 156.184 67.604H161.028ZM165.299 65.574C165.523 65.1353 165.841 64.7947 166.251 64.552C166.671 64.3093 167.18 64.188 167.777 64.188V65.504H167.441C166.013 65.504 165.299 66.2787 165.299 67.828V72H164.025V64.328H165.299V65.574ZM178.986 62.242V63.278H176.326V72H175.052V63.278H172.378V62.242H178.986ZM181.829 65.574C182.053 65.1353 182.37 64.7947 182.781 64.552C183.201 64.3093 183.709 64.188 184.307 64.188V65.504H183.971C182.543 65.504 181.829 66.2787 181.829 67.828V72H180.555V64.328H181.829V65.574ZM185.301 68.136C185.301 67.352 185.46 66.666 185.777 66.078C186.095 65.4807 186.529 65.0187 187.079 64.692C187.639 64.3653 188.26 64.202 188.941 64.202C189.613 64.202 190.197 64.3467 190.691 64.636C191.186 64.9253 191.555 65.2893 191.797 65.728V64.328H193.085V72H191.797V70.572C191.545 71.02 191.167 71.3933 190.663 71.692C190.169 71.9813 189.59 72.126 188.927 72.126C188.246 72.126 187.63 71.958 187.079 71.622C186.529 71.286 186.095 70.8147 185.777 70.208C185.46 69.6013 185.301 68.9107 185.301 68.136ZM191.797 68.15C191.797 67.5713 191.681 67.0673 191.447 66.638C191.214 66.2087 190.897 65.882 190.495 65.658C190.103 65.4247 189.669 65.308 189.193 65.308C188.717 65.308 188.283 65.42 187.891 65.644C187.499 65.868 187.187 66.1947 186.953 66.624C186.72 67.0533 186.603 67.5573 186.603 68.136C186.603 68.724 186.72 69.2373 186.953 69.676C187.187 70.1053 187.499 70.4367 187.891 70.67C188.283 70.894 188.717 71.006 189.193 71.006C189.669 71.006 190.103 70.894 190.495 70.67C190.897 70.4367 191.214 70.1053 191.447 69.676C191.681 69.2373 191.797 68.7287 191.797 68.15ZM194.762 68.15C194.762 67.3567 194.921 66.666 195.238 66.078C195.555 65.4807 195.994 65.0187 196.554 64.692C197.123 64.3653 197.772 64.202 198.5 64.202C199.443 64.202 200.217 64.4307 200.824 64.888C201.44 65.3453 201.846 65.98 202.042 66.792H200.67C200.539 66.3253 200.283 65.9567 199.9 65.686C199.527 65.4153 199.06 65.28 198.5 65.28C197.772 65.28 197.184 65.532 196.736 66.036C196.288 66.5307 196.064 67.2353 196.064 68.15C196.064 69.074 196.288 69.788 196.736 70.292C197.184 70.796 197.772 71.048 198.5 71.048C199.06 71.048 199.527 70.9173 199.9 70.656C200.273 70.3947 200.53 70.0213 200.67 69.536H202.042C201.837 70.32 201.426 70.95 200.81 71.426C200.194 71.8927 199.424 72.126 198.5 72.126C197.772 72.126 197.123 71.9627 196.554 71.636C195.994 71.3093 195.555 70.8473 195.238 70.25C194.921 69.6527 194.762 68.9527 194.762 68.15ZM208.026 72L205.016 68.612V72H203.742V61.64H205.016V67.73L207.97 64.328H209.748L206.136 68.15L209.762 72H208.026ZM217.947 67.87C217.947 68.1127 217.933 68.3693 217.905 68.64H211.773C211.82 69.396 212.076 69.9887 212.543 70.418C213.019 70.838 213.593 71.048 214.265 71.048C214.816 71.048 215.273 70.922 215.637 70.67C216.01 70.4087 216.272 70.0633 216.421 69.634H217.793C217.588 70.3713 217.177 70.9733 216.561 71.44C215.945 71.8973 215.18 72.126 214.265 72.126C213.537 72.126 212.884 71.9627 212.305 71.636C211.736 71.3093 211.288 70.8473 210.961 70.25C210.634 69.6433 210.471 68.9433 210.471 68.15C210.471 67.3567 210.63 66.6613 210.947 66.064C211.264 65.4667 211.708 65.0093 212.277 64.692C212.856 64.3653 213.518 64.202 214.265 64.202C214.993 64.202 215.637 64.3607 216.197 64.678C216.757 64.9953 217.186 65.434 217.485 65.994C217.793 66.5447 217.947 67.17 217.947 67.87ZM216.631 67.604C216.631 67.1187 216.524 66.7033 216.309 66.358C216.094 66.0033 215.8 65.7373 215.427 65.56C215.063 65.3733 214.657 65.28 214.209 65.28C213.565 65.28 213.014 65.4853 212.557 65.896C212.109 66.3067 211.852 66.876 211.787 67.604H216.631ZM220.903 65.574C221.127 65.1353 221.444 64.7947 221.855 64.552C222.275 64.3093 222.783 64.188 223.381 64.188V65.504H223.045C221.617 65.504 220.903 66.2787 220.903 67.828V72H219.629V64.328H220.903V65.574ZM234.352 69.83H230.096L229.312 72H227.968L231.496 62.298H232.966L236.48 72H235.136L234.352 69.83ZM233.988 68.794L232.224 63.866L230.46 68.794H233.988ZM239.291 65.742C239.543 65.3033 239.917 64.9393 240.411 64.65C240.915 64.3513 241.499 64.202 242.161 64.202C242.843 64.202 243.459 64.3653 244.009 64.692C244.569 65.0187 245.008 65.4807 245.325 66.078C245.643 66.666 245.801 67.352 245.801 68.136C245.801 68.9107 245.643 69.6013 245.325 70.208C245.008 70.8147 244.569 71.286 244.009 71.622C243.459 71.958 242.843 72.126 242.161 72.126C241.508 72.126 240.929 71.9813 240.425 71.692C239.931 71.3933 239.553 71.0247 239.291 70.586V75.64H238.017V64.328H239.291V65.742ZM244.499 68.136C244.499 67.5573 244.383 67.0533 244.149 66.624C243.916 66.1947 243.599 65.868 243.197 65.644C242.805 65.42 242.371 65.308 241.895 65.308C241.429 65.308 240.995 65.4247 240.593 65.658C240.201 65.882 239.884 66.2133 239.641 66.652C239.408 67.0813 239.291 67.5807 239.291 68.15C239.291 68.7287 239.408 69.2373 239.641 69.676C239.884 70.1053 240.201 70.4367 240.593 70.67C240.995 70.894 241.429 71.006 241.895 71.006C242.371 71.006 242.805 70.894 243.197 70.67C243.599 70.4367 243.916 70.1053 244.149 69.676C244.383 69.2373 244.499 68.724 244.499 68.136ZM248.752 65.742C249.004 65.3033 249.378 64.9393 249.872 64.65C250.376 64.3513 250.96 64.202 251.622 64.202C252.304 64.202 252.92 64.3653 253.47 64.692C254.03 65.0187 254.469 65.4807 254.786 66.078C255.104 66.666 255.262 67.352 255.262 68.136C255.262 68.9107 255.104 69.6013 254.786 70.208C254.469 70.8147 254.03 71.286 253.47 71.622C252.92 71.958 252.304 72.126 251.622 72.126C250.969 72.126 250.39 71.9813 249.886 71.692C249.392 71.3933 249.014 71.0247 248.752 70.586V75.64H247.478V64.328H248.752V65.742ZM253.96 68.136C253.96 67.5573 253.844 67.0533 253.61 66.624C253.377 66.1947 253.06 65.868 252.658 65.644C252.266 65.42 251.832 65.308 251.356 65.308C250.89 65.308 250.456 65.4247 250.054 65.658C249.662 65.882 249.345 66.2133 249.102 66.652C248.869 67.0813 248.752 67.5807 248.752 68.15C248.752 68.7287 248.869 69.2373 249.102 69.676C249.345 70.1053 249.662 70.4367 250.054 70.67C250.456 70.894 250.89 71.006 251.356 71.006C251.832 71.006 252.266 70.894 252.658 70.67C253.06 70.4367 253.377 70.1053 253.61 69.676C253.844 69.2373 253.96 68.724 253.96 68.136Z" fill="white"/>
<path d="M133.94 29.94C135.88 29.94 137.55 30.29 138.95 30.99C140.37 31.67 141.45 32.64 142.19 33.9C142.95 35.14 143.33 36.6 143.33 38.28C143.33 38.86 143.26 39.59 143.12 40.47C142.76 42.53 141.98 44.36 140.78 45.96C139.6 47.56 138.09 48.8 136.25 49.68C134.43 50.56 132.42 51 130.22 51H122.33L126.05 29.94H133.94ZM130.67 46.62C132.61 46.62 134.22 46.08 135.5 45C136.78 43.92 137.58 42.41 137.9 40.47C138 39.87 138.05 39.37 138.05 38.97C138.05 37.49 137.6 36.35 136.7 35.55C135.8 34.73 134.52 34.32 132.86 34.32H130.4L128.24 46.62H130.67ZM149.977 32.52C149.177 32.52 148.537 32.31 148.057 31.89C147.597 31.45 147.367 30.9 147.367 30.24C147.367 29.34 147.717 28.57 148.417 27.93C149.117 27.29 149.967 26.97 150.967 26.97C151.767 26.97 152.397 27.19 152.857 27.63C153.317 28.05 153.547 28.6 153.547 29.28C153.547 30.16 153.197 30.92 152.497 31.56C151.797 32.2 150.957 32.52 149.977 32.52ZM152.197 34.26L149.257 51H144.127L147.067 34.26H152.197ZM153.455 42.6C153.755 40.88 154.345 39.37 155.225 38.07C156.105 36.77 157.165 35.77 158.405 35.07C159.645 34.37 160.955 34.02 162.335 34.02C163.515 34.02 164.505 34.26 165.305 34.74C166.105 35.22 166.685 35.85 167.045 36.63L167.465 34.26H172.595L169.625 51H164.495L164.945 48.63C164.305 49.41 163.495 50.04 162.515 50.52C161.535 51 160.455 51.24 159.275 51.24C158.095 51.24 157.045 50.97 156.125 50.43C155.225 49.89 154.525 49.13 154.025 48.15C153.525 47.15 153.275 45.98 153.275 44.64C153.275 44 153.335 43.32 153.455 42.6ZM165.995 42.63C166.055 42.27 166.085 41.94 166.085 41.64C166.085 40.66 165.795 39.89 165.215 39.33C164.655 38.77 163.935 38.49 163.055 38.49C162.035 38.49 161.105 38.86 160.265 39.6C159.425 40.32 158.895 41.32 158.675 42.6C158.615 42.96 158.585 43.29 158.585 43.59C158.585 44.57 158.865 45.35 159.425 45.93C160.005 46.49 160.725 46.77 161.585 46.77C162.605 46.77 163.535 46.4 164.375 45.66C165.215 44.92 165.755 43.91 165.995 42.63ZM180.986 36.63C181.626 35.85 182.426 35.22 183.386 34.74C184.366 34.26 185.446 34.02 186.626 34.02C188.426 34.02 189.876 34.61 190.976 35.79C192.096 36.97 192.656 38.57 192.656 40.59C192.656 41.21 192.596 41.88 192.476 42.6C192.176 44.32 191.586 45.84 190.706 47.16C189.826 48.46 188.766 49.47 187.526 50.19C186.286 50.89 184.976 51.24 183.596 51.24C182.436 51.24 181.456 51 180.656 50.52C179.856 50.04 179.266 49.42 178.886 48.66L177.056 58.98H171.926L176.276 34.26H181.406L180.986 36.63ZM187.286 42.6C187.346 42.26 187.376 41.95 187.376 41.67C187.376 40.67 187.086 39.89 186.506 39.33C185.946 38.77 185.226 38.49 184.346 38.49C183.326 38.49 182.396 38.86 181.556 39.6C180.716 40.34 180.176 41.35 179.936 42.63C179.876 42.99 179.846 43.32 179.846 43.62C179.846 44.6 180.126 45.37 180.686 45.93C181.246 46.49 181.966 46.77 182.846 46.77C183.866 46.77 184.796 46.4 185.636 45.66C186.496 44.9 187.046 43.88 187.286 42.6ZM204.137 34.02C206.297 34.02 208.007 34.61 209.267 35.79C210.547 36.95 211.187 38.54 211.187 40.56C211.187 41.22 211.137 41.81 211.037 42.33C210.957 42.79 210.837 43.28 210.677 43.8H199.067C199.047 43.92 199.037 44.11 199.037 44.37C199.037 45.25 199.277 45.92 199.757 46.38C200.237 46.84 200.877 47.07 201.677 47.07C202.957 47.07 203.937 46.53 204.617 45.45H210.077C209.357 47.15 208.187 48.54 206.567 49.62C204.947 50.7 203.127 51.24 201.107 51.24C198.947 51.24 197.217 50.64 195.917 49.44C194.637 48.24 193.997 46.61 193.997 44.55C193.997 43.93 194.057 43.29 194.177 42.63C194.477 40.89 195.097 39.37 196.037 38.07C196.977 36.77 198.147 35.77 199.547 35.07C200.947 34.37 202.477 34.02 204.137 34.02ZM205.997 41.19C206.037 40.91 206.057 40.72 206.057 40.62C206.057 39.82 205.807 39.21 205.307 38.79C204.807 38.35 204.147 38.13 203.327 38.13C202.447 38.13 201.667 38.4 200.987 38.94C200.327 39.46 199.847 40.21 199.547 41.19H205.997ZM219.714 37.29C220.494 36.29 221.384 35.51 222.384 34.95C223.404 34.37 224.464 34.08 225.564 34.08L224.604 39.51H223.194C221.914 39.51 220.904 39.79 220.164 40.35C219.424 40.89 218.934 41.85 218.694 43.23L217.314 51H212.184L215.124 34.26H220.254L219.714 37.29ZM251.039 35.4C250.819 36.64 250.309 37.67 249.509 38.49C248.709 39.31 247.749 39.88 246.629 40.2C247.629 40.42 248.419 40.91 248.999 41.67C249.579 42.43 249.869 43.32 249.869 44.34C249.869 44.66 249.839 44.97 249.779 45.27C249.479 47.03 248.619 48.43 247.199 49.47C245.779 50.49 243.969 51 241.769 51H231.959L235.679 29.94H245.159C247.059 29.94 248.529 30.33 249.569 31.11C250.609 31.89 251.129 32.97 251.129 34.35C251.129 34.69 251.099 35.04 251.039 35.4ZM242.639 38.49C243.499 38.49 244.189 38.3 244.709 37.92C245.229 37.54 245.549 36.99 245.669 36.27C245.689 36.15 245.699 35.99 245.699 35.79C245.699 35.21 245.509 34.77 245.129 34.47C244.749 34.15 244.189 33.99 243.449 33.99H240.089L239.309 38.49H242.639ZM244.679 44.58C244.719 44.34 244.739 44.16 244.739 44.04C244.739 43.46 244.529 43.01 244.109 42.69C243.689 42.35 243.109 42.18 242.369 42.18H238.649L237.809 46.92H241.589C242.469 46.92 243.169 46.72 243.689 46.32C244.209 45.92 244.539 45.34 244.679 44.58ZM271.204 34.26L268.264 51H263.134L263.524 48.72C262.864 49.46 262.054 50.06 261.094 50.52C260.154 50.96 259.144 51.18 258.064 51.18C256.384 51.18 255.064 50.71 254.104 49.77C253.144 48.81 252.664 47.48 252.664 45.78C252.664 45.14 252.714 44.56 252.814 44.04L254.554 34.26H259.654L258.064 43.35C258.004 43.67 257.974 43.98 257.974 44.28C257.974 45.12 258.204 45.77 258.664 46.23C259.144 46.67 259.804 46.89 260.644 46.89C261.604 46.89 262.414 46.61 263.074 46.05C263.754 45.47 264.204 44.65 264.424 43.59L266.074 34.26H271.204ZM272.429 42.6C272.729 40.88 273.319 39.37 274.199 38.07C275.079 36.77 276.139 35.77 277.379 35.07C278.619 34.37 279.929 34.02 281.309 34.02C282.409 34.02 283.369 34.25 284.189 34.71C285.029 35.17 285.639 35.79 286.019 36.57L287.399 28.8H292.529L288.599 51H283.469L283.889 48.6C283.249 49.4 282.449 50.04 281.489 50.52C280.529 51 279.459 51.24 278.279 51.24C277.099 51.24 276.049 50.97 275.129 50.43C274.229 49.89 273.519 49.12 272.999 48.12C272.499 47.12 272.249 45.95 272.249 44.61C272.249 43.99 272.309 43.32 272.429 42.6ZM284.969 42.63C285.029 42.27 285.059 41.94 285.059 41.64C285.059 40.66 284.769 39.89 284.189 39.33C283.629 38.77 282.909 38.49 282.029 38.49C281.009 38.49 280.079 38.86 279.239 39.6C278.399 40.32 277.869 41.32 277.649 42.6C277.589 42.96 277.559 43.29 277.559 43.59C277.559 44.57 277.839 45.35 278.399 45.93C278.979 46.49 279.699 46.77 280.559 46.77C281.579 46.77 282.509 46.4 283.349 45.66C284.189 44.92 284.729 43.91 284.969 42.63ZM292.79 42.6C293.09 40.88 293.68 39.37 294.56 38.07C295.44 36.77 296.5 35.77 297.74 35.07C298.98 34.37 300.29 34.02 301.67 34.02C302.77 34.02 303.73 34.25 304.55 34.71C305.39 35.17 306 35.79 306.38 36.57L307.76 28.8H312.89L308.96 51H303.83L304.25 48.6C303.61 49.4 302.81 50.04 301.85 50.52C300.89 51 299.82 51.24 298.64 51.24C297.46 51.24 296.41 50.97 295.49 50.43C294.59 49.89 293.88 49.12 293.36 48.12C292.86 47.12 292.61 45.95 292.61 44.61C292.61 43.99 292.67 43.32 292.79 42.6ZM305.33 42.63C305.39 42.27 305.42 41.94 305.42 41.64C305.42 40.66 305.13 39.89 304.55 39.33C303.99 38.77 303.27 38.49 302.39 38.49C301.37 38.49 300.44 38.86 299.6 39.6C298.76 40.32 298.23 41.32 298.01 42.6C297.95 42.96 297.92 43.29 297.92 43.59C297.92 44.57 298.2 45.35 298.76 45.93C299.34 46.49 300.06 46.77 300.92 46.77C301.94 46.77 302.87 46.4 303.71 45.66C304.55 44.92 305.09 43.91 305.33 42.63ZM319.452 34.26L321.492 44.73L327.192 34.26H332.742L317.892 58.95H312.372L317.712 50.43L313.752 34.26H319.452Z" fill="white"/>
<defs>
<filter id="filter0_d_437_14" x="0" y="0" width="130" height="130" filterUnits="userSpaceOnUse" color-interpolation-filters="sRGB">
<feFlood flood-opacity="0" result="BackgroundImageFix"/>
<feColorMatrix in="SourceAlpha" type="matrix" values="0 0 0 0 0 0 0 0 0 0 0 0 0 0 0 0 0 0 127 0" result="hardAlpha"/>
<feOffset dy="13"/>
<feGaussianBlur stdDeviation="16.5"/>
<feColorMatrix type="matrix" values="0 0 0 0 0.342792 0 0 0 0 0.102917 0 0 0 0 0.65 0 0 0 1 0"/>
<feBlend mode="normal" in2="BackgroundImageFix" result="effect1_dropShadow_437_14"/>
<feBlend mode="normal" in="SourceGraphic" in2="effect1_dropShadow_437_14" result="shape"/>
</filter>
</defs>
</svg>
